<svg width="60" height="60" viewBox="0 0 60 60" fill="none" xmlns="http://www.w3.org/2000/svg">
<path fill-rule="evenodd" clip-rule="evenodd" d="M27.6518 41.7266H33.0355V33.1351C33.0355 30.87 33.4659 28.6764 36.2695 28.6764C39.0325 28.6764 39.0694 31.2668 39.0694 33.2807V41.7266H44.4541V32.2003C44.4541 27.5248 43.447 23.9276 37.9904 23.9276C35.3689 23.9276 33.6112 25.367 32.892 26.7325H32.8196V24.3594H27.6518V41.7266ZM21.5789 15.7266C23.3015 15.7266 24.7016 17.1289 24.7016 18.8552C24.7016 20.5828 23.3015 21.9854 21.5789 21.9854C19.8517 21.9854 18.4541 20.5828 18.4541 18.8552C18.4541 17.1289 19.8517 15.7266 21.5789 15.7266ZM18.8832 41.7266H24.2717V24.3594H18.8832V41.7266Z" fill="white"/>
</svg>
