<svg width="60" height="60" viewBox="0 0 60 60" fill="none" xmlns="http://www.w3.org/2000/svg">
<path fill-rule="evenodd" clip-rule="evenodd" d="M25.8966 41.4531C36.463 41.4531 42.2414 32.6052 42.2414 24.9329C42.2414 24.6815 42.2364 24.4313 42.225 24.1823C43.3465 23.3628 44.3216 22.3402 45.0908 21.176C44.0614 21.6382 42.9537 21.9496 41.7917 22.0901C42.9777 21.3714 43.8884 20.2339 44.3178 18.8782C43.2077 19.5433 41.9787 20.0271 40.6702 20.2876C39.6219 19.1589 38.129 18.4531 36.4769 18.4531C33.3043 18.4531 30.7314 21.0535 30.7314 24.2589C30.7314 24.7147 30.7819 25.1577 30.8805 25.5828C26.1063 25.3402 21.8725 23.0296 19.0396 19.5164C18.5458 20.3743 18.2616 21.3714 18.2616 22.4348C18.2616 24.4492 19.2758 26.2275 20.818 27.2678C19.8757 27.2385 18.9903 26.9768 18.2161 26.5415C18.2149 26.5657 18.2149 26.59 18.2149 26.6154C18.2149 29.4278 20.1953 31.7754 22.8237 32.3078C22.3412 32.4405 21.8335 32.512 21.3093 32.512C20.9393 32.512 20.5793 32.475 20.2294 32.4073C20.9606 34.7141 23.0814 36.3928 25.596 36.4401C23.6295 37.9974 21.1527 38.9256 18.4611 38.9256C17.9977 38.9256 17.5404 38.8987 17.0908 38.8451C19.6332 40.4919 22.6518 41.4531 25.8966 41.4531Z" fill="white"/>
</svg>
